<?xml version="1.0" standalone="no"?>
<!DOCTYPE svg PUBLIC "-//W3C//DTD SVG 20010904//EN"
 "http://www.w3.org/TR/2001/REC-SVG-20010904/DTD/svg10.dtd">
<svg version="1.0" xmlns="http://www.w3.org/2000/svg"
 width="106.000000pt" height="98.000000pt" viewBox="0 0 106.000000 98.000000"
 preserveAspectRatio="xMidYMid meet">

<g transform="translate(0.000000,98.000000) scale(0.100000,-0.100000)"
fill="#69FF74" stroke="none">
<path d="M305 896 l-170 -82 -47 -209 c-26 -115 -44 -213 -40 -219 5 -6 64
-82 133 -168 l124 -158 220 0 220 0 130 166 c72 91 129 171 129 179 -1 7 -21
102 -45 211 l-44 198 -173 83 c-225 108 -213 108 -437 -1z m333 -157 l108 -50
27 -121 27 -120 -75 -94 -76 -94 -124 0 -125 0 -75 95 -75 94 27 120 27 120
105 50 c58 28 110 50 114 51 4 0 56 -23 115 -51z"/>
<path fill="#55C35D" d="M449 665 l-67 -34 -17 -76 -16 -75 47 -60 47 -60 81 0 81 1 45 55
c48 60 49 66 30 161 -11 53 -12 54 -81 88 -37 19 -72 35 -76 35 -5 -1 -38 -16
-74 -35z"/>
</g>
</svg>
